<?xml version="1.0" encoding="utf-8"?>
<!-- Generator: Adobe Illustrator 15.0.0, SVG Export Plug-In . SVG Version: 6.00 Build 0)  -->
<!DOCTYPE svg PUBLIC "-//W3C//DTD SVG 1.1//EN" "http://www.w3.org/Graphics/SVG/1.1/DTD/svg11.dtd">
<svg version="1.1" id="Layer_1" xmlns="http://www.w3.org/2000/svg" xmlns:xlink="http://www.w3.org/1999/xlink" x="0px" y="0px"
	 width="530.973px" height="551.986px" viewBox="0 0 530.973 551.986" enable-background="new 0 0 530.973 551.986"
	 xml:space="preserve">
<path fill-rule="evenodd" clip-rule="evenodd" fill="#231E1B" d="M265.479,39.56c-133.865,0-242.415,108.534-242.415,242.43
	c0,107.097,69.454,197.958,165.796,230.018c12.12,2.224,16.546-5.26,16.546-11.684c0-5.757-0.21-21.001-0.328-41.231
	c-67.434,14.648-81.662-32.496-81.662-32.496C112.393,398.59,96.5,391.134,96.5,391.134c-22.01-15.042,1.665-14.736,1.665-14.736
	c24.329,1.715,37.133,24.983,37.133,24.983c21.625,37.045,56.737,26.348,70.552,20.144c2.201-15.668,8.465-26.349,15.39-32.411
	c-53.831-6.117-110.424-26.914-110.424-119.813c0-26.464,9.447-48.104,24.954-65.05c-2.493-6.134-10.813-30.782,2.376-64.15
	c0,0,20.354-6.525,66.665,24.852c19.336-5.377,40.076-8.08,60.698-8.167c20.579,0.087,41.318,2.79,60.691,8.167
	c46.273-31.377,66.591-24.852,66.591-24.852c13.226,33.368,4.913,58.017,2.413,64.15c15.536,16.945,24.91,38.586,24.91,65.05
	c0,93.131-56.68,113.621-110.687,119.624c8.721,7.485,16.467,22.279,16.467,44.895c0,32.408-0.305,58.555-0.305,66.504
	c0,6.481,4.374,14.024,16.684,11.656c96.239-32.119,165.636-122.924,165.636-229.99C507.909,148.094,399.36,39.56,265.479,39.56z"/>
</svg>
